<?xml version="1.0" encoding="us-ascii" standalone="no"?><svg xmlns="http://www.w3.org/2000/svg" xmlns:xlink="http://www.w3.org/1999/xlink" contentStyleType="text/css" height="956px" preserveAspectRatio="none" style="width:1114px;height:956px;background:#FFFFFF;" version="1.1" viewBox="0 0 1114 956" width="1114px" zoomAndPan="magnify"><defs/><g><text fill="#000000" font-family="sans-serif" font-size="14" font-weight="bold" lengthAdjust="spacing" textLength="250" x="433.5" y="29.5332">UC7: Review AI-Suggested Matches</text><rect fill="none" height="567.8672" style="stroke:#000000;stroke-width:1.5;" width="1098" x="10" y="289.9766"/><rect fill="none" height="423.1094" style="stroke:#000000;stroke-width:1.5;" width="1078" x="20" y="427.7344"/><line style="stroke:#181818;stroke-width:0.5;stroke-dasharray:5.0,5.0;" x1="81" x2="81" y1="121.2188" y2="874.8438"/><line style="stroke:#181818;stroke-width:0.5;stroke-dasharray:5.0,5.0;" x1="260.5" x2="260.5" y1="121.2188" y2="874.8438"/><line style="stroke:#181818;stroke-width:0.5;stroke-dasharray:5.0,5.0;" x1="507" x2="507" y1="121.2188" y2="874.8438"/><line style="stroke:#181818;stroke-width:0.5;stroke-dasharray:5.0,5.0;" x1="697" x2="697" y1="121.2188" y2="874.8438"/><line style="stroke:#181818;stroke-width:0.5;stroke-dasharray:5.0,5.0;" x1="842" x2="842" y1="121.2188" y2="874.8438"/><line style="stroke:#181818;stroke-width:0.5;stroke-dasharray:5.0,5.0;" x1="965" x2="965" y1="121.2188" y2="874.8438"/><text fill="#000000" font-family="sans-serif" font-size="14" lengthAdjust="spacing" textLength="97" x="30" y="118.1426">Finance Officer</text><ellipse cx="81.5" cy="52.1094" fill="#E2E2F0" rx="8" ry="8" style="stroke:#181818;stroke-width:0.5;"/><path d="M81.5,60.1094 L81.5,87.1094 M68.5,68.1094 L94.5,68.1094 M81.5,87.1094 L68.5,102.1094 M81.5,87.1094 L94.5,102.1094 " fill="none" style="stroke:#181818;stroke-width:0.5;"/><text fill="#000000" font-family="sans-serif" font-size="14" lengthAdjust="spacing" textLength="97" x="30" y="888.377">Finance Officer</text><ellipse cx="81.5" cy="899.9531" fill="#E2E2F0" rx="8" ry="8" style="stroke:#181818;stroke-width:0.5;"/><path d="M81.5,907.9531 L81.5,934.9531 M68.5,915.9531 L94.5,915.9531 M81.5,934.9531 L68.5,949.9531 M81.5,934.9531 L94.5,949.9531 " fill="none" style="stroke:#181818;stroke-width:0.5;"/><rect fill="#E2E2F0" height="31.6094" rx="2.5" ry="2.5" style="stroke:#181818;stroke-width:0.5;" width="234" x="143.5" y="88.6094"/><text fill="#000000" font-family="sans-serif" font-size="14" lengthAdjust="spacing" textLength="220" x="150.5" y="110.1426">ReconciliationDashboardController</text><rect fill="#E2E2F0" height="31.6094" rx="2.5" ry="2.5" style="stroke:#181818;stroke-width:0.5;" width="234" x="143.5" y="873.8438"/><text fill="#000000" font-family="sans-serif" font-size="14" lengthAdjust="spacing" textLength="220" x="150.5" y="895.377">ReconciliationDashboardController</text><rect fill="#E2E2F0" height="31.6094" rx="2.5" ry="2.5" style="stroke:#181818;stroke-width:0.5;" width="149" x="433" y="88.6094"/><text fill="#000000" font-family="sans-serif" font-size="14" lengthAdjust="spacing" textLength="135" x="440" y="110.1426">ReconciliationService</text><rect fill="#E2E2F0" height="31.6094" rx="2.5" ry="2.5" style="stroke:#181818;stroke-width:0.5;" width="149" x="433" y="873.8438"/><text fill="#000000" font-family="sans-serif" font-size="14" lengthAdjust="spacing" textLength="135" x="440" y="895.377">ReconciliationService</text><rect fill="#E2E2F0" height="31.6094" rx="2.5" ry="2.5" style="stroke:#181818;stroke-width:0.5;" width="121" x="637" y="88.6094"/><text fill="#000000" font-family="sans-serif" font-size="14" lengthAdjust="spacing" textLength="107" x="644" y="110.1426">MatchHypothesis</text><rect fill="#E2E2F0" height="31.6094" rx="2.5" ry="2.5" style="stroke:#181818;stroke-width:0.5;" width="121" x="637" y="873.8438"/><text fill="#000000" font-family="sans-serif" font-size="14" lengthAdjust="spacing" textLength="107" x="644" y="895.377">MatchHypothesis</text><rect fill="#E2E2F0" height="31.6094" rx="2.5" ry="2.5" style="stroke:#181818;stroke-width:0.5;" width="148" x="768" y="88.6094"/><text fill="#000000" font-family="sans-serif" font-size="14" lengthAdjust="spacing" textLength="134" x="775" y="110.1426">ReconciliationRecord</text><rect fill="#E2E2F0" height="31.6094" rx="2.5" ry="2.5" style="stroke:#181818;stroke-width:0.5;" width="148" x="768" y="873.8438"/><text fill="#000000" font-family="sans-serif" font-size="14" lengthAdjust="spacing" textLength="134" x="775" y="895.377">ReconciliationRecord</text><rect fill="#E2E2F0" height="31.6094" rx="2.5" ry="2.5" style="stroke:#181818;stroke-width:0.5;" width="78" x="926" y="88.6094"/><text fill="#000000" font-family="sans-serif" font-size="14" lengthAdjust="spacing" textLength="64" x="933" y="110.1426">DataStore</text><rect fill="#E2E2F0" height="31.6094" rx="2.5" ry="2.5" style="stroke:#181818;stroke-width:0.5;" width="78" x="926" y="873.8438"/><text fill="#000000" font-family="sans-serif" font-size="14" lengthAdjust="spacing" textLength="64" x="933" y="895.377">DataStore</text><polygon fill="#181818" points="248.5,149.5703,258.5,153.5703,248.5,157.5703,252.5,153.5703" style="stroke:#181818;stroke-width:1.0;"/><line style="stroke:#181818;stroke-width:1.0;" x1="81.5" x2="254.5" y1="153.5703" y2="153.5703"/><text fill="#000000" font-family="sans-serif" font-size="13" lengthAdjust="spacing" textLength="117" x="88.5" y="148.7139">loadPendingQueue()</text><polygon fill="#181818" points="495.5,179.9219,505.5,183.9219,495.5,187.9219,499.5,183.9219" style="stroke:#181818;stroke-width:1.0;"/><line style="stroke:#181818;stroke-width:1.0;" x1="260.5" x2="501.5" y1="183.9219" y2="183.9219"/><text fill="#000000" font-family="sans-serif" font-size="13" lengthAdjust="spacing" textLength="127" x="267.5" y="179.0654">getPendingQueue(ws)</text><polygon fill="#181818" points="953,210.2734,963,214.2734,953,218.2734,957,214.2734" style="stroke:#181818;stroke-width:1.0;"/><line style="stroke:#181818;stroke-width:1.0;" x1="507.5" x2="959" y1="214.2734" y2="214.2734"/><text fill="#000000" font-family="sans-serif" font-size="13" lengthAdjust="spacing" textLength="187" x="514.5" y="209.417">findPendingReview(workspaceId)</text><polygon fill="#181818" points="518.5,240.625,508.5,244.625,518.5,248.625,514.5,244.625" style="stroke:#181818;stroke-width:1.0;"/><line style="stroke:#181818;stroke-width:1.0;stroke-dasharray:2.0,2.0;" x1="512.5" x2="964" y1="244.625" y2="244.625"/><text fill="#000000" font-family="sans-serif" font-size="13" lengthAdjust="spacing" textLength="175" x="524.5" y="239.7686">return List&lt;MatchHypothesis&gt;</text><polygon fill="#181818" points="271.5,270.9766,261.5,274.9766,271.5,278.9766,267.5,274.9766" style="stroke:#181818;stroke-width:1.0;"/><line style="stroke:#181818;stroke-width:1.0;stroke-dasharray:2.0,2.0;" x1="265.5" x2="506.5" y1="274.9766" y2="274.9766"/><text fill="#000000" font-family="sans-serif" font-size="13" lengthAdjust="spacing" textLength="175" x="277.5" y="270.1201">return List&lt;MatchHypothesis&gt;</text><path d="M10,289.9766 L83,289.9766 L83,298.3281 L73,308.3281 L10,308.3281 L10,289.9766 " fill="#EEEEEE" style="stroke:#000000;stroke-width:1.5;"/><rect fill="none" height="567.8672" style="stroke:#000000;stroke-width:1.5;" width="1098" x="10" y="289.9766"/><text fill="#000000" font-family="sans-serif" font-size="13" font-weight="bold" lengthAdjust="spacing" textLength="28" x="25" y="304.4717">loop</text><text fill="#000000" font-family="sans-serif" font-size="11" font-weight="bold" lengthAdjust="spacing" textLength="199" x="98" y="303.3955">[for each pending MatchHypothesis]</text><line style="stroke:#181818;stroke-width:1.0;" x1="260.5" x2="302.5" y1="330.6797" y2="330.6797"/><line style="stroke:#181818;stroke-width:1.0;" x1="302.5" x2="302.5" y1="330.6797" y2="343.6797"/><line style="stroke:#181818;stroke-width:1.0;" x1="261.5" x2="302.5" y1="343.6797" y2="343.6797"/><polygon fill="#181818" points="271.5,339.6797,261.5,343.6797,271.5,347.6797,267.5,343.6797" style="stroke:#181818;stroke-width:1.0;"/><text fill="#000000" font-family="sans-serif" font-size="13" lengthAdjust="spacing" textLength="188" x="267.5" y="325.8232">showXAIExplanation(hypothesis)</text><path d="M265,356.6797 L265,415.6797 L475,415.6797 L475,366.6797 L465,356.6797 L265,356.6797 " fill="#FEFFDD" style="stroke:#181818;stroke-width:0.5;"/><path d="M465,356.6797 L465,366.6797 L475,366.6797 L465,356.6797 " fill="#FEFFDD" style="stroke:#181818;stroke-width:0.5;"/><text fill="#000000" font-family="sans-serif" font-size="13" lengthAdjust="spacing" textLength="174" x="271" y="375.1748">Renders bank + ledger entries</text><text fill="#000000" font-family="sans-serif" font-size="13" lengthAdjust="spacing" textLength="171" x="271" y="391.5264">side-by-side with XAI cue text</text><text fill="#000000" font-family="sans-serif" font-size="13" lengthAdjust="spacing" textLength="189" x="271" y="407.8779">from hypothesis.getXAICueText()</text><path d="M20,427.7344 L81,427.7344 L81,436.0859 L71,446.0859 L20,446.0859 L20,427.7344 " fill="#EEEEEE" style="stroke:#000000;stroke-width:1.5;"/><rect fill="none" height="423.1094" style="stroke:#000000;stroke-width:1.5;" width="1078" x="20" y="427.7344"/><text fill="#000000" font-family="sans-serif" font-size="13" font-weight="bold" lengthAdjust="spacing" textLength="16" x="35" y="442.2295">alt</text><text fill="#000000" font-family="sans-serif" font-size="11" font-weight="bold" lengthAdjust="spacing" textLength="185" x="96" y="441.1533">[Finance Officer clicks "Approve"]</text><polygon fill="#181818" points="248.5,464.4375,258.5,468.4375,248.5,472.4375,252.5,468.4375" style="stroke:#181818;stroke-width:1.0;"/><line style="stroke:#181818;stroke-width:1.0;" x1="81.5" x2="254.5" y1="468.4375" y2="468.4375"/><text fill="#000000" font-family="sans-serif" font-size="13" lengthAdjust="spacing" textLength="155" x="88.5" y="463.5811">handleApprove(hypothesis)</text><polygon fill="#181818" points="495.5,494.7891,505.5,498.7891,495.5,502.7891,499.5,498.7891" style="stroke:#181818;stroke-width:1.0;"/><line style="stroke:#181818;stroke-width:1.0;" x1="260.5" x2="501.5" y1="498.7891" y2="498.7891"/><text fill="#000000" font-family="sans-serif" font-size="13" lengthAdjust="spacing" textLength="223" x="267.5" y="493.9326">approveHypothesis(hypothesisId, user)</text><polygon fill="#181818" points="685.5,525.1406,695.5,529.1406,685.5,533.1406,689.5,529.1406" style="stroke:#181818;stroke-width:1.0;"/><line style="stroke:#181818;stroke-width:1.0;" x1="507.5" x2="691.5" y1="529.1406" y2="529.1406"/><text fill="#000000" font-family="sans-serif" font-size="13" lengthAdjust="spacing" textLength="166" x="514.5" y="524.2842">seal(sealedBy: SystemUser)</text><polygon fill="#181818" points="518.5,555.4922,508.5,559.4922,518.5,563.4922,514.5,559.4922" style="stroke:#181818;stroke-width:1.0;"/><line style="stroke:#181818;stroke-width:1.0;stroke-dasharray:2.0,2.0;" x1="512.5" x2="696.5" y1="559.4922" y2="559.4922"/><text fill="#000000" font-family="sans-serif" font-size="13" lengthAdjust="spacing" textLength="159" x="524.5" y="554.6357">return ReconciliationRecord</text><polygon fill="#181818" points="953,585.8438,963,589.8438,953,593.8438,957,589.8438" style="stroke:#181818;stroke-width:1.0;"/><line style="stroke:#181818;stroke-width:1.0;" x1="507.5" x2="959" y1="589.8438" y2="589.8438"/><text fill="#000000" font-family="sans-serif" font-size="13" lengthAdjust="spacing" textLength="197" x="514.5" y="584.9873">saveRecord(ReconciliationRecord)</text><polygon fill="#181818" points="953,632.5469,963,636.5469,953,640.5469,957,636.5469" style="stroke:#181818;stroke-width:1.0;"/><line style="stroke:#181818;stroke-width:1.0;" x1="507.5" x2="959" y1="636.5469" y2="636.5469"/><text fill="#000000" font-family="sans-serif" font-size="13" lengthAdjust="spacing" textLength="106" x="514.5" y="615.3389">saveHypothesis(h)</text><text fill="#000000" font-family="sans-serif" font-size="13" lengthAdjust="spacing" textLength="133" x="514.5" y="631.6904">[status = APPROVED]</text><line style="stroke:#000000;stroke-width:1.0;stroke-dasharray:2.0,2.0;" x1="20" x2="1098" y1="645.5469" y2="645.5469"/><text fill="#000000" font-family="sans-serif" font-size="11" font-weight="bold" lengthAdjust="spacing" textLength="172" x="25" y="656.9658">[Finance Officer clicks "Reject"]</text><polygon fill="#181818" points="248.5,678.7344,258.5,682.7344,248.5,686.7344,252.5,682.7344" style="stroke:#181818;stroke-width:1.0;"/><line style="stroke:#181818;stroke-width:1.0;" x1="81.5" x2="254.5" y1="682.7344" y2="682.7344"/><text fill="#000000" font-family="sans-serif" font-size="13" lengthAdjust="spacing" textLength="146" x="88.5" y="677.8779">handleReject(hypothesis)</text><polygon fill="#181818" points="495.5,709.0859,505.5,713.0859,495.5,717.0859,499.5,713.0859" style="stroke:#181818;stroke-width:1.0;"/><line style="stroke:#181818;stroke-width:1.0;" x1="260.5" x2="501.5" y1="713.0859" y2="713.0859"/><text fill="#000000" font-family="sans-serif" font-size="13" lengthAdjust="spacing" textLength="211" x="267.5" y="708.2295">rejectHypothesis(hypothesisId, user)</text><polygon fill="#181818" points="685.5,739.4375,695.5,743.4375,685.5,747.4375,689.5,743.4375" style="stroke:#181818;stroke-width:1.0;"/><line style="stroke:#181818;stroke-width:1.0;" x1="507.5" x2="691.5" y1="743.4375" y2="743.4375"/><text fill="#000000" font-family="sans-serif" font-size="13" lengthAdjust="spacing" textLength="40" x="514.5" y="738.5811">reject()</text><polygon fill="#181818" points="953,786.1406,963,790.1406,953,794.1406,957,790.1406" style="stroke:#181818;stroke-width:1.0;"/><line style="stroke:#181818;stroke-width:1.0;" x1="507.5" x2="959" y1="790.1406" y2="790.1406"/><text fill="#000000" font-family="sans-serif" font-size="13" lengthAdjust="spacing" textLength="106" x="514.5" y="768.9326">saveHypothesis(h)</text><text fill="#000000" font-family="sans-serif" font-size="13" lengthAdjust="spacing" textLength="127" x="514.5" y="785.2842">[status = REJECTED]</text><path d="M841,803.1406 L841,845.1406 L1088,845.1406 L1088,813.1406 L1078,803.1406 L841,803.1406 " fill="#FEFFDD" style="stroke:#181818;stroke-width:0.5;"/><path d="M1078,803.1406 L1078,813.1406 L1088,813.1406 L1078,803.1406 " fill="#FEFFDD" style="stroke:#181818;stroke-width:0.5;"/><text fill="#000000" font-family="sans-serif" font-size="13" lengthAdjust="spacing" textLength="226" x="847" y="821.6357">Transaction returns to unmatched pool.</text><text fill="#000000" font-family="sans-serif" font-size="13" lengthAdjust="spacing" textLength="186" x="847" y="837.9873">Rejection recorded as feedback.</text><!--SRC=[bLHTRzem57tFhxZYAMY3rqbegyG82AOXMD9MayOUZ7sJU1WxiXqe_tx-W1POozH8IHITS-x7kJUst0g4Xz6d0UIuuxY7uQnNj5M5nYA3ER6qHfCaX5gbeJFXaaYAi2XBJb5tW1YOB9A6QCifRuYqqCcHAacvuCHo9JDYwhKYcesKj5e9SLJbsUYMh42zSnaYjRXaXgAcXqPPLnetWJEVtehclpIBmV9BOaOiALnlCLLM9Cba0RqxNnyCG2Z2bYWPbzMF5bjCkua7F5uuk49xWUwDmmiFPnukkJofexdfNkcDQGZ56UicZjCxHT9eMotXEpVsyrL_To7aSqatcObGge7IZGe9hQ69oU6Abu2xJds4eAPM-v_3sVYf4KG6ozBwcTuDVAaiWkPLRK6LHrdkugCsi2Po0nz08AlGfNQ3vcXMqd26lVMXvz-mvxO6bmDeYs3noQvagTKMNlBqdPsEC6hnti7Ewf2N20jNQmTKSBenq1asZLOxx0IYlyvdLnF911uf_xHpRe4V08cy5vFE53Fs4Lg3-amPXZoVUkkGYDG_a7qz3A0uk1zd-t31ThphGR-sdrVHmmePiiE8fgz9kczfpllehkGlOubj3No1uNAPBnx7sU_eBWg3RzgRun-azfQxaV5VStMWlT_Rg4lVtsK-_ZOUtVikJygmlcx0EghlDP767MhEoUD835W5hTo64uz1evJehsHiCBAyuGvnnqI9oDQ4RlhHGyaIV_y5]--></g></svg>