<?xml version="1.0" encoding="us-ascii" standalone="no"?><svg xmlns="http://www.w3.org/2000/svg" xmlns:xlink="http://www.w3.org/1999/xlink" contentStyleType="text/css" height="1104px" preserveAspectRatio="none" style="width:918px;height:1104px;background:#FFFFFF;" version="1.1" viewBox="0 0 918 1104" width="918px" zoomAndPan="magnify"><defs/><g><text fill="#000000" font-family="sans-serif" font-size="14" font-weight="bold" lengthAdjust="spacing" textLength="239" x="340.75" y="29.5332">UC10: Identify Financial Anomalies</text><rect fill="none" height="598.8672" style="stroke:#000000;stroke-width:1.5;" width="901.5" x="10" y="406.0859"/><rect fill="none" height="429.2734" style="stroke:#000000;stroke-width:1.5;" width="881.5" x="20" y="568.6797"/><rect fill="none" height="131.7578" style="stroke:#000000;stroke-width:1.5;" width="738" x="30" y="828.8438"/><line style="stroke:#181818;stroke-width:0.5;stroke-dasharray:5.0,5.0;" x1="91" x2="91" y1="121.2188" y2="1021.9531"/><line style="stroke:#181818;stroke-width:0.5;stroke-dasharray:5.0,5.0;" x1="400.5" x2="400.5" y1="121.2188" y2="1021.9531"/><line style="stroke:#181818;stroke-width:0.5;stroke-dasharray:5.0,5.0;" x1="646.5" x2="646.5" y1="121.2188" y2="1021.9531"/><line style="stroke:#181818;stroke-width:0.5;stroke-dasharray:5.0,5.0;" x1="852.5" x2="852.5" y1="121.2188" y2="1021.9531"/><text fill="#000000" font-family="sans-serif" font-size="14" lengthAdjust="spacing" textLength="97" x="40" y="118.1426">Finance Officer</text><ellipse cx="91.5" cy="52.1094" fill="#E2E2F0" rx="8" ry="8" style="stroke:#181818;stroke-width:0.5;"/><path d="M91.5,60.1094 L91.5,87.1094 M78.5,68.1094 L104.5,68.1094 M91.5,87.1094 L78.5,102.1094 M91.5,87.1094 L104.5,102.1094 " fill="none" style="stroke:#181818;stroke-width:0.5;"/><text fill="#000000" font-family="sans-serif" font-size="14" lengthAdjust="spacing" textLength="97" x="40" y="1035.4863">Finance Officer</text><ellipse cx="91.5" cy="1047.0625" fill="#E2E2F0" rx="8" ry="8" style="stroke:#181818;stroke-width:0.5;"/><path d="M91.5,1055.0625 L91.5,1082.0625 M78.5,1063.0625 L104.5,1063.0625 M91.5,1082.0625 L78.5,1097.0625 M91.5,1082.0625 L104.5,1097.0625 " fill="none" style="stroke:#181818;stroke-width:0.5;"/><rect fill="#E2E2F0" height="31.6094" rx="2.5" ry="2.5" style="stroke:#181818;stroke-width:0.5;" width="234" x="283.5" y="88.6094"/><text fill="#000000" font-family="sans-serif" font-size="14" lengthAdjust="spacing" textLength="220" x="290.5" y="110.1426">ReconciliationDashboardController</text><rect fill="#E2E2F0" height="31.6094" rx="2.5" ry="2.5" style="stroke:#181818;stroke-width:0.5;" width="234" x="283.5" y="1020.9531"/><text fill="#000000" font-family="sans-serif" font-size="14" lengthAdjust="spacing" textLength="220" x="290.5" y="1042.4863">ReconciliationDashboardController</text><rect fill="#E2E2F0" height="31.6094" rx="2.5" ry="2.5" style="stroke:#181818;stroke-width:0.5;" width="122" x="585.5" y="88.6094"/><text fill="#000000" font-family="sans-serif" font-size="14" lengthAdjust="spacing" textLength="108" x="592.5" y="110.1426">AnomalyDetector</text><rect fill="#E2E2F0" height="31.6094" rx="2.5" ry="2.5" style="stroke:#181818;stroke-width:0.5;" width="122" x="585.5" y="1020.9531"/><text fill="#000000" font-family="sans-serif" font-size="14" lengthAdjust="spacing" textLength="108" x="592.5" y="1042.4863">AnomalyDetector</text><rect fill="#E2E2F0" height="31.6094" rx="2.5" ry="2.5" style="stroke:#181818;stroke-width:0.5;" width="78" x="813.5" y="88.6094"/><text fill="#000000" font-family="sans-serif" font-size="14" lengthAdjust="spacing" textLength="64" x="820.5" y="110.1426">DataStore</text><rect fill="#E2E2F0" height="31.6094" rx="2.5" ry="2.5" style="stroke:#181818;stroke-width:0.5;" width="78" x="813.5" y="1020.9531"/><text fill="#000000" font-family="sans-serif" font-size="14" lengthAdjust="spacing" textLength="64" x="820.5" y="1042.4863">DataStore</text><path d="M48,136.2188 L48,227.2188 L894,227.2188 L894,146.2188 L884,136.2188 L48,136.2188 " fill="#FEFFDD" style="stroke:#181818;stroke-width:0.5;"/><path d="M884,136.2188 L884,146.2188 L894,146.2188 L884,136.2188 " fill="#FEFFDD" style="stroke:#181818;stroke-width:0.5;"/><text fill="#000000" font-family="sans-serif" font-size="13" lengthAdjust="spacing" textLength="127" x="249.25" y="154.7139">&#9888; DEFERRED TO V2</text><text fill="#000000" font-family="sans-serif" font-size="13" lengthAdjust="spacing" textLength="424" x="249.25" y="171.0654">No AnomalyDetector class, no anomaly list on ReconciliationWorkspace,</text><text fill="#000000" font-family="sans-serif" font-size="13" lengthAdjust="spacing" textLength="435" x="249.25" y="187.417">and no anomaly-related service method exist in the current v1 class design.</text><text fill="#000000" font-family="sans-serif" font-size="13" lengthAdjust="spacing" textLength="328" x="249.25" y="203.7686">The background AI watchdog has no class infrastructure.</text><text fill="#000000" font-family="sans-serif" font-size="13" lengthAdjust="spacing" textLength="337" x="249.25" y="220.1201">This diagram documents the intended v2 architecture only.</text><path d="M544,237.9766 L544,263.9766 L748,263.9766 L748,247.9766 L738,237.9766 L544,237.9766 " fill="#FEFFDD" style="stroke:#181818;stroke-width:0.5;"/><path d="M738,237.9766 L738,247.9766 L748,247.9766 L738,237.9766 " fill="#FEFFDD" style="stroke:#181818;stroke-width:0.5;"/><text fill="#000000" font-family="sans-serif" font-size="13" lengthAdjust="spacing" textLength="183" x="550" y="256.4717">[V2] Not in current class design</text><polygon fill="#181818" points="388.5,287.6797,398.5,291.6797,388.5,295.6797,392.5,291.6797" style="stroke:#181818;stroke-width:1.0;"/><line style="stroke:#181818;stroke-width:1.0;" x1="91.5" x2="394.5" y1="291.6797" y2="291.6797"/><text fill="#000000" font-family="sans-serif" font-size="13" lengthAdjust="spacing" textLength="221" x="98.5" y="286.8232">openAnomalyDashboard(workspaceId)</text><polygon fill="#181818" points="634.5,318.0313,644.5,322.0313,634.5,326.0313,638.5,322.0313" style="stroke:#181818;stroke-width:1.0;"/><line style="stroke:#181818;stroke-width:1.0;" x1="400.5" x2="640.5" y1="322.0313" y2="322.0313"/><text fill="#000000" font-family="sans-serif" font-size="13" lengthAdjust="spacing" textLength="159" x="407.5" y="317.1748">getAnomalies(workspaceId)</text><path d="M651,335.0313 L651,394.0313 L899,394.0313 L899,345.0313 L889,335.0313 L651,335.0313 " fill="#FEFFDD" style="stroke:#181818;stroke-width:0.5;"/><path d="M889,335.0313 L889,345.0313 L899,345.0313 L889,335.0313 " fill="#FEFFDD" style="stroke:#181818;stroke-width:0.5;"/><text fill="#000000" font-family="sans-serif" font-size="13" lengthAdjust="spacing" textLength="227" x="657" y="353.5264">[V2] Background watchdog has already</text><text fill="#000000" font-family="sans-serif" font-size="13" lengthAdjust="spacing" textLength="215" x="657" y="369.8779">scanned for duplicates, unrecognized</text><text fill="#000000" font-family="sans-serif" font-size="13" lengthAdjust="spacing" textLength="148" x="657" y="386.2295">vendors, unusual patterns</text><path d="M10,406.0859 L71,406.0859 L71,414.4375 L61,424.4375 L10,424.4375 L10,406.0859 " fill="#EEEEEE" style="stroke:#000000;stroke-width:1.5;"/><rect fill="none" height="598.8672" style="stroke:#000000;stroke-width:1.5;" width="901.5" x="10" y="406.0859"/><text fill="#000000" font-family="sans-serif" font-size="13" font-weight="bold" lengthAdjust="spacing" textLength="16" x="25" y="420.5811">alt</text><text fill="#000000" font-family="sans-serif" font-size="11" font-weight="bold" lengthAdjust="spacing" textLength="134" x="86" y="419.5049">[No anomalies detected]</text><polygon fill="#181818" points="411.5,442.7891,401.5,446.7891,411.5,450.7891,407.5,446.7891" style="stroke:#181818;stroke-width:1.0;"/><line style="stroke:#181818;stroke-width:1.0;stroke-dasharray:2.0,2.0;" x1="405.5" x2="645.5" y1="446.7891" y2="446.7891"/><text fill="#000000" font-family="sans-serif" font-size="13" lengthAdjust="spacing" textLength="94" x="417.5" y="441.9326">return empty list</text><polygon fill="#181818" points="102.5,473.1406,92.5,477.1406,102.5,481.1406,98.5,477.1406" style="stroke:#181818;stroke-width:1.0;"/><line style="stroke:#181818;stroke-width:1.0;stroke-dasharray:2.0,2.0;" x1="96.5" x2="399.5" y1="477.1406" y2="477.1406"/><text fill="#000000" font-family="sans-serif" font-size="13" lengthAdjust="spacing" textLength="285" x="108.5" y="472.2842">display "Zero Anomalies Detected for this Period"</text><line style="stroke:#000000;stroke-width:1.0;stroke-dasharray:2.0,2.0;" x1="10" x2="911.5" y1="486.1406" y2="486.1406"/><text fill="#000000" font-family="sans-serif" font-size="11" font-weight="bold" lengthAdjust="spacing" textLength="102" x="15" y="497.5596">[Anomalies found]</text><polygon fill="#181818" points="411.5,519.3281,401.5,523.3281,411.5,527.3281,407.5,523.3281" style="stroke:#181818;stroke-width:1.0;"/><line style="stroke:#181818;stroke-width:1.0;stroke-dasharray:2.0,2.0;" x1="405.5" x2="645.5" y1="523.3281" y2="523.3281"/><text fill="#000000" font-family="sans-serif" font-size="13" lengthAdjust="spacing" textLength="125" x="417.5" y="518.4717">return List&lt;Anomaly&gt;</text><polygon fill="#181818" points="102.5,549.6797,92.5,553.6797,102.5,557.6797,98.5,553.6797" style="stroke:#181818;stroke-width:1.0;"/><line style="stroke:#181818;stroke-width:1.0;stroke-dasharray:2.0,2.0;" x1="96.5" x2="399.5" y1="553.6797" y2="553.6797"/><text fill="#000000" font-family="sans-serif" font-size="13" lengthAdjust="spacing" textLength="115" x="108.5" y="548.8232">display anomaly list</text><path d="M20,568.6797 L93,568.6797 L93,577.0313 L83,587.0313 L20,587.0313 L20,568.6797 " fill="#EEEEEE" style="stroke:#000000;stroke-width:1.5;"/><rect fill="none" height="429.2734" style="stroke:#000000;stroke-width:1.5;" width="881.5" x="20" y="568.6797"/><text fill="#000000" font-family="sans-serif" font-size="13" font-weight="bold" lengthAdjust="spacing" textLength="28" x="35" y="583.1748">loop</text><text fill="#000000" font-family="sans-serif" font-size="11" font-weight="bold" lengthAdjust="spacing" textLength="104" x="108" y="582.0986">[for each Anomaly]</text><polygon fill="#181818" points="388.5,605.3828,398.5,609.3828,388.5,613.3828,392.5,609.3828" style="stroke:#181818;stroke-width:1.0;"/><line style="stroke:#181818;stroke-width:1.0;" x1="91.5" x2="394.5" y1="609.3828" y2="609.3828"/><text fill="#000000" font-family="sans-serif" font-size="13" lengthAdjust="spacing" textLength="153" x="98.5" y="604.5264">selectAnomaly(anomalyId)</text><polygon fill="#181818" points="102.5,635.7344,92.5,639.7344,102.5,643.7344,98.5,639.7344" style="stroke:#181818;stroke-width:1.0;"/><line style="stroke:#181818;stroke-width:1.0;stroke-dasharray:2.0,2.0;" x1="96.5" x2="399.5" y1="639.7344" y2="639.7344"/><text fill="#000000" font-family="sans-serif" font-size="13" lengthAdjust="spacing" textLength="118" x="108.5" y="634.8779">show anomaly detail</text><polygon fill="#181818" points="388.5,666.0859,398.5,670.0859,388.5,674.0859,392.5,670.0859" style="stroke:#181818;stroke-width:1.0;"/><line style="stroke:#181818;stroke-width:1.0;" x1="91.5" x2="394.5" y1="670.0859" y2="670.0859"/><text fill="#000000" font-family="sans-serif" font-size="13" lengthAdjust="spacing" textLength="134" x="98.5" y="665.2295">resolveAnomaly(action)</text><path d="M96,683.0859 L96,725.0859 L350,725.0859 L350,693.0859 L340,683.0859 L96,683.0859 " fill="#FEFFDD" style="stroke:#181818;stroke-width:0.5;"/><path d="M340,683.0859 L340,693.0859 L350,693.0859 L340,683.0859 " fill="#FEFFDD" style="stroke:#181818;stroke-width:0.5;"/><text fill="#000000" font-family="sans-serif" font-size="13" lengthAdjust="spacing" textLength="171" x="102" y="701.5811">Actions: "Mark as Duplicate",</text><text fill="#000000" font-family="sans-serif" font-size="13" lengthAdjust="spacing" textLength="233" x="102" y="717.9326">"Adjust Bank Fee", "Ignore - False Flag"</text><polygon fill="#181818" points="634.5,749.1406,644.5,753.1406,634.5,757.1406,638.5,753.1406" style="stroke:#181818;stroke-width:1.0;"/><line style="stroke:#181818;stroke-width:1.0;" x1="400.5" x2="640.5" y1="753.1406" y2="753.1406"/><text fill="#000000" font-family="sans-serif" font-size="13" lengthAdjust="spacing" textLength="222" x="407.5" y="748.2842">resolveAnomaly(anomalyId, resolution)</text><polygon fill="#181818" points="840.5,779.4922,850.5,783.4922,840.5,787.4922,844.5,783.4922" style="stroke:#181818;stroke-width:1.0;"/><line style="stroke:#181818;stroke-width:1.0;" x1="646.5" x2="846.5" y1="783.4922" y2="783.4922"/><text fill="#000000" font-family="sans-serif" font-size="13" lengthAdjust="spacing" textLength="182" x="653.5" y="778.6357">saveAnomalyResolution(record)</text><polygon fill="#181818" points="657.5,809.8438,647.5,813.8438,657.5,817.8438,653.5,813.8438" style="stroke:#181818;stroke-width:1.0;"/><line style="stroke:#181818;stroke-width:1.0;stroke-dasharray:2.0,2.0;" x1="651.5" x2="851.5" y1="813.8438" y2="813.8438"/><text fill="#000000" font-family="sans-serif" font-size="13" lengthAdjust="spacing" textLength="33" x="663.5" y="808.9873">saved</text><path d="M30,828.8438 L91,828.8438 L91,837.1953 L81,847.1953 L30,847.1953 L30,828.8438 " fill="#EEEEEE" style="stroke:#000000;stroke-width:1.5;"/><rect fill="none" height="131.7578" style="stroke:#000000;stroke-width:1.5;" width="738" x="30" y="828.8438"/><text fill="#000000" font-family="sans-serif" font-size="13" font-weight="bold" lengthAdjust="spacing" textLength="16" x="45" y="843.3389">alt</text><text fill="#000000" font-family="sans-serif" font-size="11" font-weight="bold" lengthAdjust="spacing" textLength="206" x="106" y="842.2627">[Anomaly requires client clarification]</text><polygon fill="#181818" points="388.5,865.5469,398.5,869.5469,388.5,873.5469,392.5,869.5469" style="stroke:#181818;stroke-width:1.0;"/><line style="stroke:#181818;stroke-width:1.0;" x1="91.5" x2="394.5" y1="869.5469" y2="869.5469"/><text fill="#000000" font-family="sans-serif" font-size="13" lengthAdjust="spacing" textLength="151" x="98.5" y="864.6904">requestClientClarification()</text><polygon fill="#181818" points="634.5,895.8984,644.5,899.8984,634.5,903.8984,638.5,899.8984" style="stroke:#181818;stroke-width:1.0;"/><line style="stroke:#181818;stroke-width:1.0;" x1="400.5" x2="640.5" y1="899.8984" y2="899.8984"/><text fill="#000000" font-family="sans-serif" font-size="13" lengthAdjust="spacing" textLength="155" x="407.5" y="895.042">sendClientAlert(anomalyId)</text><path d="M535,912.8984 L535,954.8984 L758,954.8984 L758,922.8984 L748,912.8984 L535,912.8984 " fill="#FEFFDD" style="stroke:#181818;stroke-width:0.5;"/><path d="M748,912.8984 L748,922.8984 L758,922.8984 L748,912.8984 " fill="#FEFFDD" style="stroke:#181818;stroke-width:0.5;"/><text fill="#000000" font-family="sans-serif" font-size="13" lengthAdjust="spacing" textLength="164" x="541" y="931.3936">Use case pauses until client</text><text fill="#000000" font-family="sans-serif" font-size="13" lengthAdjust="spacing" textLength="202" x="541" y="947.7451">provides documentation or approval</text><polygon fill="#181818" points="102.5,985.9531,92.5,989.9531,102.5,993.9531,98.5,989.9531" style="stroke:#181818;stroke-width:1.0;"/><line style="stroke:#181818;stroke-width:1.0;stroke-dasharray:2.0,2.0;" x1="96.5" x2="399.5" y1="989.9531" y2="989.9531"/><text fill="#000000" font-family="sans-serif" font-size="13" lengthAdjust="spacing" textLength="113" x="108.5" y="985.0967">refresh anomaly list</text><!--SRC=[TLLDRzD04BtxLunyAbA3Q8yHgXJYHge45AK590Y7ONTiBzdicjrrIlWfdFXj_19cDxPZGnifENW-tfitRvoWWYPulxnuCOSRIIQeyW0hPT08XHeMnkvGA_9PPcmWGE6iznd0dr-_eRXUNQ_NrmNStyA7ItxurdO5Xu82YM0T28tUduEnWCS8QEK3M0Dh4fP1jCAWhFbetTOtAEYS-w2HeugP8us197XoUoK8TXHgAu5-n4xAGAW9HEiSiuVznH4I97bLcUVSxPx3Nr5iAsTRRhouWGSCefQsWXfz13fMA5CwzC6r8hIEZfMA6oci7Ev0Mj7k6C8dF6K26ScazfU0JjGgpijbF9a-FCyeJH0eop39a1yb9RWjInx1vS38gzkiGHUKK0qozNogI86-_chHoQKrmLcjkwfriPoM_IDvIbeKqvm20zvna5AqkElMQVVaE1VcyFd3vHVUNzAprt8iP9QjRc5s5T4vspPaUjYUvjb3ly8R-IoBUPoUUbSK1XzDin89fwgQ7L6EYBmwhMkoAzIEK1usnWiqXjKlMLlPDbe9TWZxh3MEHQoC-aboO_Qy1klIuzQtRES6Go1dsCseGxGhzhnup2WVILuxH2QpOLX7l5W3j6l2qRqf9Gt8EIpBd3tY6uq7o3-HiwUZWQ9hcdY6wAPtv9ILUKRQqoYnZBC-2VsQGLzsUbyzZJw-i2obQMkRX4qewlusKoH-nXlrf9bfbt7MTOehwfCdYBws3mCSAuTAPu-sTUIjtjFGLqHddvfEzvzQBrAAdqF-1jqskRNVRtw-CVb2Vclvx5-XsSAA-1daDvLXPyCCLXXLNMciycnAl7FYltJwCS-FaNRABgxYYeyb3en3rNh8F8jUSoEDE7NMGyKAUM8H_TOrOAplhM90FZ3LtPbJPHoHcmuL_qlvlIKVbgbcEIuvUpOf6W_i-GAE5Gj-VuJ75ZliuVGoUCyg2kIV1blFF5l-Mz0TsurfdDqh6K-cUoCc4i0kmoR6K0-z6Jrxt46EIbQWddgsBudVlm00]--></g></svg>