<?xml version="1.0" encoding="us-ascii" standalone="no"?><svg xmlns="http://www.w3.org/2000/svg" xmlns:xlink="http://www.w3.org/1999/xlink" contentStyleType="text/css" height="1178px" preserveAspectRatio="none" style="width:1088px;height:1178px;background:#FFFFFF;" version="1.1" viewBox="0 0 1088 1178" width="1088px" zoomAndPan="magnify"><defs/><g><text fill="#000000" font-family="sans-serif" font-size="14" font-weight="bold" lengthAdjust="spacing" textLength="325" x="382.5" y="29.5332">UC11: Generate Verified Reconciliation Report</text><rect fill="none" height="719.9766" style="stroke:#000000;stroke-width:1.5;" width="1072" x="9" y="359.0313"/><line style="stroke:#181818;stroke-width:0.5;stroke-dasharray:5.0,5.0;" x1="91" x2="91" y1="121.2188" y2="1096.0078"/><line style="stroke:#181818;stroke-width:0.5;stroke-dasharray:5.0,5.0;" x1="330" x2="330" y1="121.2188" y2="1096.0078"/><line style="stroke:#181818;stroke-width:0.5;stroke-dasharray:5.0,5.0;" x1="517.5" x2="517.5" y1="121.2188" y2="1096.0078"/><line style="stroke:#181818;stroke-width:0.5;stroke-dasharray:5.0,5.0;" x1="796" x2="796" y1="121.2188" y2="1096.0078"/><line style="stroke:#181818;stroke-width:0.5;stroke-dasharray:5.0,5.0;" x1="932" x2="932" y1="121.2188" y2="1096.0078"/><text fill="#000000" font-family="sans-serif" font-size="14" lengthAdjust="spacing" textLength="97" x="40" y="118.1426">Finance Officer</text><ellipse cx="91.5" cy="52.1094" fill="#E2E2F0" rx="8" ry="8" style="stroke:#181818;stroke-width:0.5;"/><path d="M91.5,60.1094 L91.5,87.1094 M78.5,68.1094 L104.5,68.1094 M91.5,87.1094 L78.5,102.1094 M91.5,87.1094 L104.5,102.1094 " fill="none" style="stroke:#181818;stroke-width:0.5;"/><text fill="#000000" font-family="sans-serif" font-size="14" lengthAdjust="spacing" textLength="97" x="40" y="1109.541">Finance Officer</text><ellipse cx="91.5" cy="1121.1172" fill="#E2E2F0" rx="8" ry="8" style="stroke:#181818;stroke-width:0.5;"/><path d="M91.5,1129.1172 L91.5,1156.1172 M78.5,1137.1172 L104.5,1137.1172 M91.5,1156.1172 L78.5,1171.1172 M91.5,1156.1172 L104.5,1171.1172 " fill="none" style="stroke:#181818;stroke-width:0.5;"/><rect fill="#E2E2F0" height="31.6094" rx="2.5" ry="2.5" style="stroke:#181818;stroke-width:0.5;" width="119" x="271" y="88.6094"/><text fill="#000000" font-family="sans-serif" font-size="14" lengthAdjust="spacing" textLength="105" x="278" y="110.1426">ReportController</text><rect fill="#E2E2F0" height="31.6094" rx="2.5" ry="2.5" style="stroke:#181818;stroke-width:0.5;" width="119" x="271" y="1095.0078"/><text fill="#000000" font-family="sans-serif" font-size="14" lengthAdjust="spacing" textLength="105" x="278" y="1116.541">ReportController</text><rect fill="#E2E2F0" height="31.6094" rx="2.5" ry="2.5" style="stroke:#181818;stroke-width:0.5;" width="104" x="465.5" y="88.6094"/><text fill="#000000" font-family="sans-serif" font-size="14" lengthAdjust="spacing" textLength="90" x="472.5" y="110.1426">ReportService</text><rect fill="#E2E2F0" height="31.6094" rx="2.5" ry="2.5" style="stroke:#181818;stroke-width:0.5;" width="104" x="465.5" y="1095.0078"/><text fill="#000000" font-family="sans-serif" font-size="14" lengthAdjust="spacing" textLength="90" x="472.5" y="1116.541">ReportService</text><rect fill="#E2E2F0" height="31.6094" rx="2.5" ry="2.5" style="stroke:#181818;stroke-width:0.5;" width="173" x="710" y="88.6094"/><text fill="#000000" font-family="sans-serif" font-size="14" lengthAdjust="spacing" textLength="159" x="717" y="110.1426">ReconciliationWorkspace</text><rect fill="#E2E2F0" height="31.6094" rx="2.5" ry="2.5" style="stroke:#181818;stroke-width:0.5;" width="173" x="710" y="1095.0078"/><text fill="#000000" font-family="sans-serif" font-size="14" lengthAdjust="spacing" textLength="159" x="717" y="1116.541">ReconciliationWorkspace</text><rect fill="#E2E2F0" height="31.6094" rx="2.5" ry="2.5" style="stroke:#181818;stroke-width:0.5;" width="78" x="893" y="88.6094"/><text fill="#000000" font-family="sans-serif" font-size="14" lengthAdjust="spacing" textLength="64" x="900" y="110.1426">DataStore</text><rect fill="#E2E2F0" height="31.6094" rx="2.5" ry="2.5" style="stroke:#181818;stroke-width:0.5;" width="78" x="893" y="1095.0078"/><text fill="#000000" font-family="sans-serif" font-size="14" lengthAdjust="spacing" textLength="64" x="900" y="1116.541">DataStore</text><path d="M48,136.2188 L48,195.2188 L974,195.2188 L974,146.2188 L964,136.2188 L48,136.2188 " fill="#FEFFDD" style="stroke:#181818;stroke-width:0.5;"/><path d="M964,136.2188 L964,146.2188 L974,146.2188 L964,136.2188 " fill="#FEFFDD" style="stroke:#181818;stroke-width:0.5;"/><text fill="#000000" font-family="sans-serif" font-size="13" lengthAdjust="spacing" textLength="370" x="321.5" y="154.7139">&#9888; PARTIAL &#8212; Core PDF/CSV export is fully implemented in v1.</text><text fill="#000000" font-family="sans-serif" font-size="13" lengthAdjust="spacing" textLength="362" x="321.5" y="171.0654">ERP system integration (JSON push), digital PDF certification,</text><text fill="#000000" font-family="sans-serif" font-size="13" lengthAdjust="spacing" textLength="294" x="321.5" y="187.417">and cryptographic period-locking are deferred to v2.</text><polygon fill="#181818" points="318.5,218.625,328.5,222.625,318.5,226.625,322.5,222.625" style="stroke:#181818;stroke-width:1.0;"/><line style="stroke:#181818;stroke-width:1.0;" x1="91.5" x2="324.5" y1="222.625" y2="222.625"/><text fill="#000000" font-family="sans-serif" font-size="13" lengthAdjust="spacing" textLength="137" x="98.5" y="217.7686">handleGenerateReport()</text><polygon fill="#181818" points="505.5,248.9766,515.5,252.9766,505.5,256.9766,509.5,252.9766" style="stroke:#181818;stroke-width:1.0;"/><line style="stroke:#181818;stroke-width:1.0;" x1="330.5" x2="511.5" y1="252.9766" y2="252.9766"/><text fill="#000000" font-family="sans-serif" font-size="13" lengthAdjust="spacing" textLength="163" x="337.5" y="248.1201">generateSummary(ws, user)</text><polygon fill="#181818" points="920,279.3281,930,283.3281,920,287.3281,924,283.3281" style="stroke:#181818;stroke-width:1.0;"/><line style="stroke:#181818;stroke-width:1.0;" x1="517.5" x2="926" y1="283.3281" y2="283.3281"/><text fill="#000000" font-family="sans-serif" font-size="13" lengthAdjust="spacing" textLength="205" x="524.5" y="278.4717">findHypothesesByWorkspace(wsId)</text><polygon fill="#181818" points="528.5,309.6797,518.5,313.6797,528.5,317.6797,524.5,313.6797" style="stroke:#181818;stroke-width:1.0;"/><line style="stroke:#181818;stroke-width:1.0;stroke-dasharray:2.0,2.0;" x1="522.5" x2="931" y1="313.6797" y2="313.6797"/><text fill="#000000" font-family="sans-serif" font-size="13" lengthAdjust="spacing" textLength="175" x="534.5" y="308.8232">return List&lt;MatchHypothesis&gt;</text><polygon fill="#181818" points="784.5,340.0313,794.5,344.0313,784.5,348.0313,788.5,344.0313" style="stroke:#181818;stroke-width:1.0;"/><line style="stroke:#181818;stroke-width:1.0;" x1="517.5" x2="790.5" y1="344.0313" y2="344.0313"/><text fill="#000000" font-family="sans-serif" font-size="13" lengthAdjust="spacing" textLength="112" x="524.5" y="339.1748">isReadyForReport()</text><path d="M9,359.0313 L70,359.0313 L70,367.3828 L60,377.3828 L9,377.3828 L9,359.0313 " fill="#EEEEEE" style="stroke:#000000;stroke-width:1.5;"/><rect fill="none" height="719.9766" style="stroke:#000000;stroke-width:1.5;" width="1072" x="9" y="359.0313"/><text fill="#000000" font-family="sans-serif" font-size="13" font-weight="bold" lengthAdjust="spacing" textLength="16" x="24" y="373.5264">alt</text><text fill="#000000" font-family="sans-serif" font-size="11" font-weight="bold" lengthAdjust="spacing" textLength="259" x="85" y="372.4502">[Unresolved pending items or anomalies exist]</text><polygon fill="#181818" points="528.5,395.7344,518.5,399.7344,528.5,403.7344,524.5,399.7344" style="stroke:#181818;stroke-width:1.0;"/><line style="stroke:#181818;stroke-width:1.0;stroke-dasharray:2.0,2.0;" x1="522.5" x2="795.5" y1="399.7344" y2="399.7344"/><text fill="#000000" font-family="sans-serif" font-size="13" lengthAdjust="spacing" textLength="64" x="534.5" y="394.8779">return false</text><polygon fill="#181818" points="341.5,426.0859,331.5,430.0859,341.5,434.0859,337.5,430.0859" style="stroke:#181818;stroke-width:1.0;"/><line style="stroke:#181818;stroke-width:1.0;stroke-dasharray:2.0,2.0;" x1="335.5" x2="516.5" y1="430.0859" y2="430.0859"/><text fill="#000000" font-family="sans-serif" font-size="13" lengthAdjust="spacing" textLength="105" x="347.5" y="425.2295">blocking items list</text><polygon fill="#181818" points="102.5,472.7891,92.5,476.7891,102.5,480.7891,98.5,476.7891" style="stroke:#181818;stroke-width:1.0;"/><line style="stroke:#181818;stroke-width:1.0;stroke-dasharray:2.0,2.0;" x1="96.5" x2="329.5" y1="476.7891" y2="476.7891"/><text fill="#000000" font-family="sans-serif" font-size="13" lengthAdjust="spacing" textLength="148" x="108.5" y="455.5811">showBlockingError(items)</text><text fill="#000000" font-family="sans-serif" font-size="13" lengthAdjust="spacing" textLength="215" x="108.5" y="471.9326">"Cannot Generate: Unresolved Items"</text><path d="M19,489.7891 L19,531.7891 L163,531.7891 L163,499.7891 L153,489.7891 L19,489.7891 " fill="#FEFFDD" style="stroke:#181818;stroke-width:0.5;"/><path d="M153,489.7891 L153,499.7891 L163,499.7891 L153,489.7891 " fill="#FEFFDD" style="stroke:#181818;stroke-width:0.5;"/><text fill="#000000" font-family="sans-serif" font-size="13" lengthAdjust="spacing" textLength="123" x="25" y="508.2842">Use case aborts until</text><text fill="#000000" font-family="sans-serif" font-size="13" lengthAdjust="spacing" textLength="105" x="25" y="524.6357">items are resolved</text><line style="stroke:#000000;stroke-width:1.0;stroke-dasharray:2.0,2.0;" x1="9" x2="1081" y1="538.4922" y2="538.4922"/><text fill="#000000" font-family="sans-serif" font-size="11" font-weight="bold" lengthAdjust="spacing" textLength="109" x="14" y="549.9111">[All items resolved]</text><polygon fill="#181818" points="528.5,571.6797,518.5,575.6797,528.5,579.6797,524.5,575.6797" style="stroke:#181818;stroke-width:1.0;"/><line style="stroke:#181818;stroke-width:1.0;stroke-dasharray:2.0,2.0;" x1="522.5" x2="795.5" y1="575.6797" y2="575.6797"/><text fill="#000000" font-family="sans-serif" font-size="13" lengthAdjust="spacing" textLength="59" x="534.5" y="570.8232">return true</text><line style="stroke:#181818;stroke-width:1.0;" x1="517.5" x2="559.5" y1="622.3828" y2="622.3828"/><line style="stroke:#181818;stroke-width:1.0;" x1="559.5" x2="559.5" y1="622.3828" y2="635.3828"/><line style="stroke:#181818;stroke-width:1.0;" x1="518.5" x2="559.5" y1="635.3828" y2="635.3828"/><polygon fill="#181818" points="528.5,631.3828,518.5,635.3828,528.5,639.3828,524.5,635.3828" style="stroke:#181818;stroke-width:1.0;"/><text fill="#000000" font-family="sans-serif" font-size="13" lengthAdjust="spacing" textLength="125" x="524.5" y="601.1748">build ReportSummary</text><text fill="#000000" font-family="sans-serif" font-size="13" lengthAdjust="spacing" textLength="265" x="524.5" y="617.5264">(matchRate, unmatchedCount, discrepancies)</text><polygon fill="#181818" points="341.5,661.7344,331.5,665.7344,341.5,669.7344,337.5,665.7344" style="stroke:#181818;stroke-width:1.0;"/><line style="stroke:#181818;stroke-width:1.0;stroke-dasharray:2.0,2.0;" x1="335.5" x2="516.5" y1="665.7344" y2="665.7344"/><text fill="#000000" font-family="sans-serif" font-size="13" lengthAdjust="spacing" textLength="131" x="347.5" y="660.8779">return ReportSummary</text><polygon fill="#181818" points="102.5,692.0859,92.5,696.0859,102.5,700.0859,98.5,696.0859" style="stroke:#181818;stroke-width:1.0;"/><line style="stroke:#181818;stroke-width:1.0;stroke-dasharray:2.0,2.0;" x1="96.5" x2="329.5" y1="696.0859" y2="696.0859"/><text fill="#000000" font-family="sans-serif" font-size="13" lengthAdjust="spacing" textLength="165" x="108.5" y="691.2295">display draft report summary</text><polygon fill="#181818" points="318.5,722.4375,328.5,726.4375,318.5,730.4375,322.5,726.4375" style="stroke:#181818;stroke-width:1.0;"/><line style="stroke:#181818;stroke-width:1.0;" x1="91.5" x2="324.5" y1="726.4375" y2="726.4375"/><text fill="#000000" font-family="sans-serif" font-size="13" lengthAdjust="spacing" textLength="103" x="98.5" y="721.5811">handleExportPdf()</text><polygon fill="#181818" points="505.5,752.7891,515.5,756.7891,505.5,760.7891,509.5,756.7891" style="stroke:#181818;stroke-width:1.0;"/><line style="stroke:#181818;stroke-width:1.0;" x1="330.5" x2="511.5" y1="756.7891" y2="756.7891"/><text fill="#000000" font-family="sans-serif" font-size="13" lengthAdjust="spacing" textLength="126" x="337.5" y="751.9326">exportToPdf(ws, path)</text><polygon fill="#181818" points="920,799.4922,930,803.4922,920,807.4922,924,803.4922" style="stroke:#181818;stroke-width:1.0;"/><line style="stroke:#181818;stroke-width:1.0;" x1="517.5" x2="926" y1="803.4922" y2="803.4922"/><text fill="#000000" font-family="sans-serif" font-size="13" lengthAdjust="spacing" textLength="116" x="524.5" y="782.2842">saveWorkspace(ws)</text><text fill="#000000" font-family="sans-serif" font-size="13" lengthAdjust="spacing" textLength="199" x="524.5" y="798.6357">[WorkspaceStatus = COMPLETE]</text><polygon fill="#181818" points="341.5,829.8438,331.5,833.8438,341.5,837.8438,337.5,833.8438" style="stroke:#181818;stroke-width:1.0;"/><line style="stroke:#181818;stroke-width:1.0;stroke-dasharray:2.0,2.0;" x1="335.5" x2="516.5" y1="833.8438" y2="833.8438"/><text fill="#000000" font-family="sans-serif" font-size="13" lengthAdjust="spacing" textLength="88" x="347.5" y="828.9873">return PDF File</text><polygon fill="#181818" points="102.5,860.1953,92.5,864.1953,102.5,868.1953,98.5,864.1953" style="stroke:#181818;stroke-width:1.0;"/><line style="stroke:#181818;stroke-width:1.0;stroke-dasharray:2.0,2.0;" x1="96.5" x2="329.5" y1="864.1953" y2="864.1953"/><text fill="#000000" font-family="sans-serif" font-size="13" lengthAdjust="spacing" textLength="128" x="108.5" y="859.3389">provide PDF download</text><polygon fill="#181818" points="318.5,890.5469,328.5,894.5469,318.5,898.5469,322.5,894.5469" style="stroke:#181818;stroke-width:1.0;"/><line style="stroke:#181818;stroke-width:1.0;" x1="91.5" x2="324.5" y1="894.5469" y2="894.5469"/><text fill="#000000" font-family="sans-serif" font-size="13" lengthAdjust="spacing" textLength="105" x="98.5" y="889.6904">handleExportCsv()</text><polygon fill="#181818" points="505.5,920.8984,515.5,924.8984,505.5,928.8984,509.5,924.8984" style="stroke:#181818;stroke-width:1.0;"/><line style="stroke:#181818;stroke-width:1.0;" x1="330.5" x2="511.5" y1="924.8984" y2="924.8984"/><text fill="#000000" font-family="sans-serif" font-size="13" lengthAdjust="spacing" textLength="128" x="337.5" y="920.042">exportToCsv(ws, path)</text><polygon fill="#181818" points="341.5,951.25,331.5,955.25,341.5,959.25,337.5,955.25" style="stroke:#181818;stroke-width:1.0;"/><line style="stroke:#181818;stroke-width:1.0;stroke-dasharray:2.0,2.0;" x1="335.5" x2="516.5" y1="955.25" y2="955.25"/><text fill="#000000" font-family="sans-serif" font-size="13" lengthAdjust="spacing" textLength="89" x="347.5" y="950.3936">return CSV File</text><polygon fill="#181818" points="102.5,981.6016,92.5,985.6016,102.5,989.6016,98.5,985.6016" style="stroke:#181818;stroke-width:1.0;"/><line style="stroke:#181818;stroke-width:1.0;stroke-dasharray:2.0,2.0;" x1="96.5" x2="329.5" y1="985.6016" y2="985.6016"/><text fill="#000000" font-family="sans-serif" font-size="13" lengthAdjust="spacing" textLength="129" x="108.5" y="980.7451">provide CSV download</text><path d="M792,998.6016 L792,1073.6016 L1071,1073.6016 L1071,1008.6016 L1061,998.6016 L792,998.6016 " fill="#FEFFDD" style="stroke:#181818;stroke-width:0.5;"/><path d="M1061,998.6016 L1061,1008.6016 L1071,1008.6016 L1061,998.6016 " fill="#FEFFDD" style="stroke:#181818;stroke-width:0.5;"/><text fill="#000000" font-family="sans-serif" font-size="13" lengthAdjust="spacing" textLength="129" x="798" y="1017.0967">[V2] ERP JSON push:</text><text fill="#000000" font-family="sans-serif" font-size="13" lengthAdjust="spacing" textLength="258" x="798" y="1033.4482">System sends payload to external ERP API.</text><text fill="#000000" font-family="sans-serif" font-size="13" lengthAdjust="spacing" textLength="206" x="798" y="1049.7998">On failure, payload queued for retry.</text><text fill="#000000" font-family="sans-serif" font-size="13" lengthAdjust="spacing" textLength="136" x="798" y="1066.1514">AVAL Engineer alerted.</text><!--SRC=[VLJDJjj04BxxAKOvnLAWWcFK8WKdQLD14yKG3eJ3Oe-J5PjTTtOTyAqFqLDFVJQUfBEsOm8fN2ojvvjlllbrqYc4w-Zaf0zVKIC9Xx10afd45EQO69r89OMJHlCpD-I2G1i6YOICjG70yv-_C1lChoQ32tZ-zHiYGmYpuVXJ52y0dxmBI0jPeLG9SfChtA1sp2urR4-EcM4qdu4jhSCD_tEueZfSztiy_G5vOTTX3rAvaaueJmm9acE1IGNhCO7GAIHKviwmRxwM2UISWacFb4aUf5w1O4afPaZ4SPs1xUbnWEpaCma2aJX3q1bBBNI2CCsO6wa3mi9u6kI2eoKo5zf1fov1PBGZerG3caV_0yL8M-Qf4V5Rn7vXRmmzs5pii3UliKFXHCm2Q-im3eBn58xEE2hqOSsfAznrhWxS3GEsUKJCY5LZYulDHb3PVRGzA2nI60HiPzJGepAfqszbRjmQBThpifN4-4aQ1WmwsZ4Ike8qN4ZhFbyAbwntZjAUxKZdDmoKTeuYBSU6Mc61K0wkDQ4rQikzoBaBla6Ics-1ko2qsGWbqVBeS01kBdYojy4peIpMnaQPhyRzhjyrdMe9eWh3TUk3NPl7ymOt8ZBKhS3XKdSYeNaWsZtexmkTU52dOgl6tsoHQi9hYv08_eXxpj52ePrKIrrBy8EtumYGDSD0gKPU-_-T71qLBoasflj2ghHPnAQZIztT-2xCMJAtLbSFJ2F3GlpUs8IG9odXceO75Mj2lI8yA1bpv4gKa9B87BjKAsqRS8K-cCXHjVUpDEk6BLsJGdqIhemt-c7CXLk7UtbMysZ55lTdaDjpsxvZ9rnXuGj4qylPnUXgTFTUNlvQZAN2WvHoCbkPLdSAKlEebH7fXwb4Tlj-AjvucCeRBVuSVgZ50rvhUPcqgYYtYzExwbYsXx6_r75zE2qlacK1fVVs9mwV79BcY-aT1hF9yL9F_Tv8LH3sMkJF0WiUxunNZtLIoR31WY_vIA-aHeui-ChnjQxkPV0F]--></g></svg>