<?xml version="1.0" encoding="us-ascii" standalone="no"?><svg xmlns="http://www.w3.org/2000/svg" xmlns:xlink="http://www.w3.org/1999/xlink" contentStyleType="text/css" height="837px" preserveAspectRatio="none" style="width:1017px;height:837px;background:#FFFFFF;" version="1.1" viewBox="0 0 1017 837" width="1017px" zoomAndPan="magnify"><defs/><g><text fill="#000000" font-family="sans-serif" font-size="14" font-weight="bold" lengthAdjust="spacing" textLength="383" x="318.75" y="29.5332">UC12: Create and Maintain Verified Transaction History</text><rect fill="none" height="247.6484" style="stroke:#000000;stroke-width:1.5;" width="1001.5" x="10" y="367.0313"/><rect fill="none" height="184.9453" style="stroke:#000000;stroke-width:1.5;" width="981.5" x="20" y="422.7344"/><rect fill="none" height="79.0547" style="stroke:#000000;stroke-width:1.5;" width="678.5" x="20" y="659.0313"/><line style="stroke:#181818;stroke-width:0.5;stroke-dasharray:5.0,5.0;" x1="103" x2="103" y1="121.2188" y2="755.0859"/><line style="stroke:#181818;stroke-width:0.5;stroke-dasharray:5.0,5.0;" x1="353" x2="353" y1="121.2188" y2="755.0859"/><line style="stroke:#181818;stroke-width:0.5;stroke-dasharray:5.0,5.0;" x1="649.5" x2="649.5" y1="121.2188" y2="755.0859"/><line style="stroke:#181818;stroke-width:0.5;stroke-dasharray:5.0,5.0;" x1="772.5" x2="772.5" y1="121.2188" y2="755.0859"/><line style="stroke:#181818;stroke-width:0.5;stroke-dasharray:5.0,5.0;" x1="923.5" x2="923.5" y1="121.2188" y2="755.0859"/><text fill="#000000" font-family="sans-serif" font-size="14" lengthAdjust="spacing" textLength="141" x="30" y="118.1426">Business Client (CFO)</text><ellipse cx="103.5" cy="52.1094" fill="#E2E2F0" rx="8" ry="8" style="stroke:#181818;stroke-width:0.5;"/><path d="M103.5,60.1094 L103.5,87.1094 M90.5,68.1094 L116.5,68.1094 M103.5,87.1094 L90.5,102.1094 M103.5,87.1094 L116.5,102.1094 " fill="none" style="stroke:#181818;stroke-width:0.5;"/><text fill="#000000" font-family="sans-serif" font-size="14" lengthAdjust="spacing" textLength="141" x="30" y="768.6191">Business Client (CFO)</text><ellipse cx="103.5" cy="780.1953" fill="#E2E2F0" rx="8" ry="8" style="stroke:#181818;stroke-width:0.5;"/><path d="M103.5,788.1953 L103.5,815.1953 M90.5,796.1953 L116.5,796.1953 M103.5,815.1953 L90.5,830.1953 M103.5,815.1953 L116.5,830.1953 " fill="none" style="stroke:#181818;stroke-width:0.5;"/><rect fill="#E2E2F0" height="31.6094" rx="2.5" ry="2.5" style="stroke:#181818;stroke-width:0.5;" width="187" x="260" y="88.6094"/><text fill="#000000" font-family="sans-serif" font-size="14" lengthAdjust="spacing" textLength="173" x="267" y="110.1426">CompliancePortalController</text><rect fill="#E2E2F0" height="31.6094" rx="2.5" ry="2.5" style="stroke:#181818;stroke-width:0.5;" width="187" x="260" y="754.0859"/><text fill="#000000" font-family="sans-serif" font-size="14" lengthAdjust="spacing" textLength="173" x="267" y="775.6191">CompliancePortalController</text><rect fill="#E2E2F0" height="31.6094" rx="2.5" ry="2.5" style="stroke:#181818;stroke-width:0.5;" width="78" x="610.5" y="88.6094"/><text fill="#000000" font-family="sans-serif" font-size="14" lengthAdjust="spacing" textLength="64" x="617.5" y="110.1426">DataStore</text><rect fill="#E2E2F0" height="31.6094" rx="2.5" ry="2.5" style="stroke:#181818;stroke-width:0.5;" width="78" x="610.5" y="754.0859"/><text fill="#000000" font-family="sans-serif" font-size="14" lengthAdjust="spacing" textLength="64" x="617.5" y="775.6191">DataStore</text><rect fill="#E2E2F0" height="31.6094" rx="2.5" ry="2.5" style="stroke:#181818;stroke-width:0.5;" width="148" x="698.5" y="88.6094"/><text fill="#000000" font-family="sans-serif" font-size="14" lengthAdjust="spacing" textLength="134" x="705.5" y="110.1426">ReconciliationRecord</text><rect fill="#E2E2F0" height="31.6094" rx="2.5" ry="2.5" style="stroke:#181818;stroke-width:0.5;" width="148" x="698.5" y="754.0859"/><text fill="#000000" font-family="sans-serif" font-size="14" lengthAdjust="spacing" textLength="134" x="705.5" y="775.6191">ReconciliationRecord</text><rect fill="#E2E2F0" height="31.6094" rx="2.5" ry="2.5" style="stroke:#181818;stroke-width:0.5;" width="135" x="856.5" y="88.6094"/><text fill="#000000" font-family="sans-serif" font-size="14" lengthAdjust="spacing" textLength="121" x="863.5" y="110.1426">CryptoHashService</text><rect fill="#E2E2F0" height="31.6094" rx="2.5" ry="2.5" style="stroke:#181818;stroke-width:0.5;" width="135" x="856.5" y="754.0859"/><text fill="#000000" font-family="sans-serif" font-size="14" lengthAdjust="spacing" textLength="121" x="863.5" y="775.6191">CryptoHashService</text><polygon fill="#181818" points="341.5,149.5703,351.5,153.5703,341.5,157.5703,345.5,153.5703" style="stroke:#181818;stroke-width:1.0;"/><line style="stroke:#181818;stroke-width:1.0;" x1="103.5" x2="347.5" y1="153.5703" y2="153.5703"/><text fill="#000000" font-family="sans-serif" font-size="13" lengthAdjust="spacing" textLength="210" x="110.5" y="148.7139">openCompliancePortal(workspaceId)</text><polygon fill="#181818" points="637.5,179.9219,647.5,183.9219,637.5,187.9219,641.5,183.9219" style="stroke:#181818;stroke-width:1.0;"/><line style="stroke:#181818;stroke-width:1.0;" x1="353.5" x2="643.5" y1="183.9219" y2="183.9219"/><text fill="#000000" font-family="sans-serif" font-size="13" lengthAdjust="spacing" textLength="184" x="360.5" y="179.0654">findRecordsByWorkspace(wsId)</text><polygon fill="#181818" points="364.5,210.2734,354.5,214.2734,364.5,218.2734,360.5,214.2734" style="stroke:#181818;stroke-width:1.0;"/><line style="stroke:#181818;stroke-width:1.0;stroke-dasharray:2.0,2.0;" x1="358.5" x2="648.5" y1="214.2734" y2="214.2734"/><text fill="#000000" font-family="sans-serif" font-size="13" lengthAdjust="spacing" textLength="196" x="370.5" y="209.417">return List&lt;ReconciliationRecord&gt;</text><polygon fill="#181818" points="114.5,240.625,104.5,244.625,114.5,248.625,110.5,244.625" style="stroke:#181818;stroke-width:1.0;"/><line style="stroke:#181818;stroke-width:1.0;stroke-dasharray:2.0,2.0;" x1="108.5" x2="352.5" y1="244.625" y2="244.625"/><text fill="#000000" font-family="sans-serif" font-size="13" lengthAdjust="spacing" textLength="191" x="120.5" y="239.7686">display available financial periods</text><polygon fill="#181818" points="341.5,270.9766,351.5,274.9766,341.5,278.9766,345.5,274.9766" style="stroke:#181818;stroke-width:1.0;"/><line style="stroke:#181818;stroke-width:1.0;" x1="103.5" x2="347.5" y1="274.9766" y2="274.9766"/><text fill="#000000" font-family="sans-serif" font-size="13" lengthAdjust="spacing" textLength="178" x="110.5" y="270.1201">viewSemanticProofLog(quarter)</text><polygon fill="#181818" points="114.5,317.6797,104.5,321.6797,114.5,325.6797,110.5,321.6797" style="stroke:#181818;stroke-width:1.0;"/><line style="stroke:#181818;stroke-width:1.0;stroke-dasharray:2.0,2.0;" x1="108.5" x2="352.5" y1="321.6797" y2="321.6797"/><text fill="#000000" font-family="sans-serif" font-size="13" lengthAdjust="spacing" textLength="194" x="120.5" y="300.4717">display semantic proof log entries</text><text fill="#000000" font-family="sans-serif" font-size="13" lengthAdjust="spacing" textLength="185" x="120.5" y="316.8232">(XAI explanation text per record)</text><polygon fill="#181818" points="341.5,348.0313,351.5,352.0313,341.5,356.0313,345.5,352.0313" style="stroke:#181818;stroke-width:1.0;"/><line style="stroke:#181818;stroke-width:1.0;" x1="103.5" x2="347.5" y1="352.0313" y2="352.0313"/><text fill="#000000" font-family="sans-serif" font-size="13" lengthAdjust="spacing" textLength="121" x="110.5" y="347.1748">exportCertifiedAudit()</text><path d="M10,367.0313 L83,367.0313 L83,375.3828 L73,385.3828 L10,385.3828 L10,367.0313 " fill="#EEEEEE" style="stroke:#000000;stroke-width:1.5;"/><rect fill="none" height="247.6484" style="stroke:#000000;stroke-width:1.5;" width="1001.5" x="10" y="367.0313"/><text fill="#000000" font-family="sans-serif" font-size="13" font-weight="bold" lengthAdjust="spacing" textLength="28" x="25" y="381.5264">loop</text><text fill="#000000" font-family="sans-serif" font-size="11" font-weight="bold" lengthAdjust="spacing" textLength="171" x="98" y="380.4502">[for each ReconciliationRecord]</text><polygon fill="#181818" points="912,403.7344,922,407.7344,912,411.7344,916,407.7344" style="stroke:#181818;stroke-width:1.0;"/><line style="stroke:#181818;stroke-width:1.0;" x1="353.5" x2="918" y1="407.7344" y2="407.7344"/><text fill="#000000" font-family="sans-serif" font-size="13" lengthAdjust="spacing" textLength="117" x="360.5" y="402.8779">validateHash(record)</text><path d="M20,422.7344 L81,422.7344 L81,431.0859 L71,441.0859 L20,441.0859 L20,422.7344 " fill="#EEEEEE" style="stroke:#000000;stroke-width:1.5;"/><rect fill="none" height="184.9453" style="stroke:#000000;stroke-width:1.5;" width="981.5" x="20" y="422.7344"/><text fill="#000000" font-family="sans-serif" font-size="13" font-weight="bold" lengthAdjust="spacing" textLength="16" x="35" y="437.2295">alt</text><text fill="#000000" font-family="sans-serif" font-size="11" font-weight="bold" lengthAdjust="spacing" textLength="239" x="96" y="436.1533">[Hash mismatch (data tampering detected)]</text><polygon fill="#181818" points="364.5,459.4375,354.5,463.4375,364.5,467.4375,360.5,463.4375" style="stroke:#181818;stroke-width:1.0;"/><line style="stroke:#181818;stroke-width:1.0;stroke-dasharray:2.0,2.0;" x1="358.5" x2="923" y1="463.4375" y2="463.4375"/><text fill="#000000" font-family="sans-serif" font-size="13" lengthAdjust="spacing" textLength="159" x="370.5" y="458.5811">INVALID &#8212; hash mismatch</text><polygon fill="#181818" points="114.5,506.1406,104.5,510.1406,114.5,514.1406,110.5,510.1406" style="stroke:#181818;stroke-width:1.0;"/><line style="stroke:#181818;stroke-width:1.0;stroke-dasharray:2.0,2.0;" x1="108.5" x2="352.5" y1="510.1406" y2="510.1406"/><text fill="#000000" font-family="sans-serif" font-size="13" lengthAdjust="spacing" textLength="181" x="120.5" y="488.9326">"Critical Error: Hash Mismatch"</text><text fill="#000000" font-family="sans-serif" font-size="13" lengthAdjust="spacing" textLength="93" x="120.5" y="505.2842">download halted</text><line style="stroke:#181818;stroke-width:1.0;" x1="353.5" x2="395.5" y1="540.4922" y2="540.4922"/><line style="stroke:#181818;stroke-width:1.0;" x1="395.5" x2="395.5" y1="540.4922" y2="553.4922"/><line style="stroke:#181818;stroke-width:1.0;" x1="354.5" x2="395.5" y1="553.4922" y2="553.4922"/><polygon fill="#181818" points="364.5,549.4922,354.5,553.4922,364.5,557.4922,360.5,553.4922" style="stroke:#181818;stroke-width:1.0;"/><text fill="#000000" font-family="sans-serif" font-size="13" lengthAdjust="spacing" textLength="282" x="360.5" y="535.6357">send emergency alert to AVAL System Engineer</text><line style="stroke:#000000;stroke-width:1.0;stroke-dasharray:2.0,2.0;" x1="20" x2="1001.5" y1="562.4922" y2="562.4922"/><text fill="#000000" font-family="sans-serif" font-size="11" font-weight="bold" lengthAdjust="spacing" textLength="63" x="25" y="573.9111">[Hash valid]</text><polygon fill="#181818" points="364.5,595.6797,354.5,599.6797,364.5,603.6797,360.5,599.6797" style="stroke:#181818;stroke-width:1.0;"/><line style="stroke:#181818;stroke-width:1.0;stroke-dasharray:2.0,2.0;" x1="358.5" x2="923" y1="599.6797" y2="599.6797"/><text fill="#000000" font-family="sans-serif" font-size="13" lengthAdjust="spacing" textLength="37" x="370.5" y="594.8232">VALID</text><polygon fill="#181818" points="114.5,640.0313,104.5,644.0313,114.5,648.0313,110.5,644.0313" style="stroke:#181818;stroke-width:1.0;"/><line style="stroke:#181818;stroke-width:1.0;stroke-dasharray:2.0,2.0;" x1="108.5" x2="352.5" y1="644.0313" y2="644.0313"/><text fill="#000000" font-family="sans-serif" font-size="13" lengthAdjust="spacing" textLength="218" x="120.5" y="639.1748">deliver certified, read-only audit export</text><path d="M20,659.0313 L81,659.0313 L81,667.3828 L71,677.3828 L20,677.3828 L20,659.0313 " fill="#EEEEEE" style="stroke:#000000;stroke-width:1.5;"/><rect fill="none" height="79.0547" style="stroke:#000000;stroke-width:1.5;" width="678.5" x="20" y="659.0313"/><text fill="#000000" font-family="sans-serif" font-size="13" font-weight="bold" lengthAdjust="spacing" textLength="16" x="35" y="673.5264">alt</text><text fill="#000000" font-family="sans-serif" font-size="11" font-weight="bold" lengthAdjust="spacing" textLength="260" x="96" y="672.4502">[Insufficient role (non-Auditor access attempt)]</text><polygon fill="#181818" points="114.5,695.7344,104.5,699.7344,114.5,703.7344,110.5,699.7344" style="stroke:#181818;stroke-width:1.0;"/><line style="stroke:#181818;stroke-width:1.0;stroke-dasharray:2.0,2.0;" x1="108.5" x2="352.5" y1="699.7344" y2="699.7344"/><text fill="#000000" font-family="sans-serif" font-size="13" lengthAdjust="spacing" textLength="226" x="120.5" y="694.8779">"Access Denied: Insufficient Privileges"</text><polygon fill="#181818" points="637.5,726.0859,647.5,730.0859,637.5,734.0859,641.5,730.0859" style="stroke:#181818;stroke-width:1.0;"/><line style="stroke:#181818;stroke-width:1.0;" x1="353.5" x2="643.5" y1="730.0859" y2="730.0859"/><text fill="#000000" font-family="sans-serif" font-size="13" lengthAdjust="spacing" textLength="226" x="360.5" y="725.2295">logUnauthorizedAccessAttempt(userId)</text><!--SRC=[TLFBRjim4BphAnO-oK1zQ8z64S2H4yH0qXXHa_QGovPSsqGfKYLfE-wf7z4lx9TqA3aF6uu07IGEPsPtTfD9LkY- -lXfJ5KGJaBiDDsmSGalFKWm2oEQlWPsaLKotj6LYSc7NL7WsmSQdA-ZSH8ZLTQ8IrHMbxV30J5-NDuMBOTab6aP9uFADwqrx9JCVKXiA-zIyDPAwF7pwX0_vSGrHAGxdjQ7ftUYl5C6XDbN_Wgw0zxT7Sc6NPly5STLBM5ZL4zNNTL50OiqEilAD2RVYZksM6vz-1bRLZBJG-0117vQ0xumJlUgyNptxHbMRcD60Z5w8GwIri7HDJht-PJhivutu-5dJDh4rlAEUCF6yWza12ruCcofHIPUnoFh6oFRMXgKQzGyUB-uzilornfTa31yXptkyTJc2sJzaf1VC18VNVbzCYDv0ivrFYd9KyhQg2Kx7Xxf0ufsLOAkvu6PhBL99K3M-vOM61DXjQ9JjHU4PzzMH99hOMiqPZ47Lhx8PHZRHFalDIOsdC1O0iYKkCbjSKlIaaGbmGNQFvdpDOdPbuV9zMnA__xyfTLRfbVyGQymEmOjGjylGl1XtClVx2yD7ftsMsSzQx1Pw1xIFAj6mLP98s4fJY5M37oYv6a2CrJlOfA6BjmIQoIXOn0RfPVgcl5ECLqfFTxf8h_7IOir6sIcddFvWFXOZxopS94psWU7PKPhPowk5mkiJLvZxALGwRmRTM4YGbOghpads6tJi3ZHhKaFcOg3sFYGS1xCnbXPIXoypRnR9SpUlUDrMlbWVcDyEff9BrIkeuIyKhd0_m00]--></g></svg>