<?xml version="1.0" encoding="us-ascii" standalone="no"?><svg xmlns="http://www.w3.org/2000/svg" xmlns:xlink="http://www.w3.org/1999/xlink" contentStyleType="text/css" height="835px" preserveAspectRatio="none" style="width:1030px;height:835px;background:#FFFFFF;" version="1.1" viewBox="0 0 1030 835" width="1030px" zoomAndPan="magnify"><defs/><g><text fill="#000000" font-family="sans-serif" font-size="14" font-weight="bold" lengthAdjust="spacing" textLength="250" x="391.5" y="29.5332">UC7: Review AI-Suggested Matches</text><rect fill="none" height="446.1094" style="stroke:#000000;stroke-width:1.5;" width="1014" x="10" y="289.9766"/><rect fill="none" height="370.4063" style="stroke:#000000;stroke-width:1.5;" width="994" x="20" y="358.6797"/><line style="stroke:#181818;stroke-width:0.5;stroke-dasharray:5.0,5.0;" x1="81" x2="81" y1="121.2188" y2="753.0859"/><line style="stroke:#181818;stroke-width:0.5;stroke-dasharray:5.0,5.0;" x1="260.5" x2="260.5" y1="121.2188" y2="753.0859"/><line style="stroke:#181818;stroke-width:0.5;stroke-dasharray:5.0,5.0;" x1="507" x2="507" y1="121.2188" y2="753.0859"/><line style="stroke:#181818;stroke-width:0.5;stroke-dasharray:5.0,5.0;" x1="697" x2="697" y1="121.2188" y2="753.0859"/><line style="stroke:#181818;stroke-width:0.5;stroke-dasharray:5.0,5.0;" x1="842" x2="842" y1="121.2188" y2="753.0859"/><line style="stroke:#181818;stroke-width:0.5;stroke-dasharray:5.0,5.0;" x1="965" x2="965" y1="121.2188" y2="753.0859"/><text fill="#000000" font-family="sans-serif" font-size="14" lengthAdjust="spacing" textLength="97" x="30" y="118.1426">Finance Officer</text><ellipse cx="81.5" cy="52.1094" fill="#E2E2F0" rx="8" ry="8" style="stroke:#181818;stroke-width:0.5;"/><path d="M81.5,60.1094 L81.5,87.1094 M68.5,68.1094 L94.5,68.1094 M81.5,87.1094 L68.5,102.1094 M81.5,87.1094 L94.5,102.1094 " fill="none" style="stroke:#181818;stroke-width:0.5;"/><text fill="#000000" font-family="sans-serif" font-size="14" lengthAdjust="spacing" textLength="97" x="30" y="766.6191">Finance Officer</text><ellipse cx="81.5" cy="778.1953" fill="#E2E2F0" rx="8" ry="8" style="stroke:#181818;stroke-width:0.5;"/><path d="M81.5,786.1953 L81.5,813.1953 M68.5,794.1953 L94.5,794.1953 M81.5,813.1953 L68.5,828.1953 M81.5,813.1953 L94.5,828.1953 " fill="none" style="stroke:#181818;stroke-width:0.5;"/><rect fill="#E2E2F0" height="31.6094" rx="2.5" ry="2.5" style="stroke:#181818;stroke-width:0.5;" width="234" x="143.5" y="88.6094"/><text fill="#000000" font-family="sans-serif" font-size="14" lengthAdjust="spacing" textLength="220" x="150.5" y="110.1426">ReconciliationDashboardController</text><rect fill="#E2E2F0" height="31.6094" rx="2.5" ry="2.5" style="stroke:#181818;stroke-width:0.5;" width="234" x="143.5" y="752.0859"/><text fill="#000000" font-family="sans-serif" font-size="14" lengthAdjust="spacing" textLength="220" x="150.5" y="773.6191">ReconciliationDashboardController</text><rect fill="#E2E2F0" height="31.6094" rx="2.5" ry="2.5" style="stroke:#181818;stroke-width:0.5;" width="149" x="433" y="88.6094"/><text fill="#000000" font-family="sans-serif" font-size="14" lengthAdjust="spacing" textLength="135" x="440" y="110.1426">ReconciliationService</text><rect fill="#E2E2F0" height="31.6094" rx="2.5" ry="2.5" style="stroke:#181818;stroke-width:0.5;" width="149" x="433" y="752.0859"/><text fill="#000000" font-family="sans-serif" font-size="14" lengthAdjust="spacing" textLength="135" x="440" y="773.6191">ReconciliationService</text><rect fill="#E2E2F0" height="31.6094" rx="2.5" ry="2.5" style="stroke:#181818;stroke-width:0.5;" width="121" x="637" y="88.6094"/><text fill="#000000" font-family="sans-serif" font-size="14" lengthAdjust="spacing" textLength="107" x="644" y="110.1426">MatchHypothesis</text><rect fill="#E2E2F0" height="31.6094" rx="2.5" ry="2.5" style="stroke:#181818;stroke-width:0.5;" width="121" x="637" y="752.0859"/><text fill="#000000" font-family="sans-serif" font-size="14" lengthAdjust="spacing" textLength="107" x="644" y="773.6191">MatchHypothesis</text><rect fill="#E2E2F0" height="31.6094" rx="2.5" ry="2.5" style="stroke:#181818;stroke-width:0.5;" width="148" x="768" y="88.6094"/><text fill="#000000" font-family="sans-serif" font-size="14" lengthAdjust="spacing" textLength="134" x="775" y="110.1426">ReconciliationRecord</text><rect fill="#E2E2F0" height="31.6094" rx="2.5" ry="2.5" style="stroke:#181818;stroke-width:0.5;" width="148" x="768" y="752.0859"/><text fill="#000000" font-family="sans-serif" font-size="14" lengthAdjust="spacing" textLength="134" x="775" y="773.6191">ReconciliationRecord</text><rect fill="#E2E2F0" height="31.6094" rx="2.5" ry="2.5" style="stroke:#181818;stroke-width:0.5;" width="78" x="926" y="88.6094"/><text fill="#000000" font-family="sans-serif" font-size="14" lengthAdjust="spacing" textLength="64" x="933" y="110.1426">DataStore</text><rect fill="#E2E2F0" height="31.6094" rx="2.5" ry="2.5" style="stroke:#181818;stroke-width:0.5;" width="78" x="926" y="752.0859"/><text fill="#000000" font-family="sans-serif" font-size="14" lengthAdjust="spacing" textLength="64" x="933" y="773.6191">DataStore</text><polygon fill="#181818" points="248.5,149.5703,258.5,153.5703,248.5,157.5703,252.5,153.5703" style="stroke:#181818;stroke-width:1.0;"/><line style="stroke:#181818;stroke-width:1.0;" x1="81.5" x2="254.5" y1="153.5703" y2="153.5703"/><text fill="#000000" font-family="sans-serif" font-size="13" lengthAdjust="spacing" textLength="117" x="88.5" y="148.7139">loadPendingQueue()</text><polygon fill="#181818" points="495.5,179.9219,505.5,183.9219,495.5,187.9219,499.5,183.9219" style="stroke:#181818;stroke-width:1.0;"/><line style="stroke:#181818;stroke-width:1.0;" x1="260.5" x2="501.5" y1="183.9219" y2="183.9219"/><text fill="#000000" font-family="sans-serif" font-size="13" lengthAdjust="spacing" textLength="127" x="267.5" y="179.0654">getPendingQueue(ws)</text><polygon fill="#181818" points="953,210.2734,963,214.2734,953,218.2734,957,214.2734" style="stroke:#181818;stroke-width:1.0;"/><line style="stroke:#181818;stroke-width:1.0;" x1="507.5" x2="959" y1="214.2734" y2="214.2734"/><text fill="#000000" font-family="sans-serif" font-size="13" lengthAdjust="spacing" textLength="187" x="514.5" y="209.417">findPendingReview(workspaceId)</text><polygon fill="#181818" points="518.5,240.625,508.5,244.625,518.5,248.625,514.5,244.625" style="stroke:#181818;stroke-width:1.0;"/><line style="stroke:#181818;stroke-width:1.0;stroke-dasharray:2.0,2.0;" x1="512.5" x2="964" y1="244.625" y2="244.625"/><text fill="#000000" font-family="sans-serif" font-size="13" lengthAdjust="spacing" textLength="175" x="524.5" y="239.7686">return List&lt;MatchHypothesis&gt;</text><polygon fill="#181818" points="271.5,270.9766,261.5,274.9766,271.5,278.9766,267.5,274.9766" style="stroke:#181818;stroke-width:1.0;"/><line style="stroke:#181818;stroke-width:1.0;stroke-dasharray:2.0,2.0;" x1="265.5" x2="506.5" y1="274.9766" y2="274.9766"/><text fill="#000000" font-family="sans-serif" font-size="13" lengthAdjust="spacing" textLength="175" x="277.5" y="270.1201">return List&lt;MatchHypothesis&gt;</text><path d="M10,289.9766 L83,289.9766 L83,298.3281 L73,308.3281 L10,308.3281 L10,289.9766 " fill="#EEEEEE" style="stroke:#000000;stroke-width:1.5;"/><rect fill="none" height="446.1094" style="stroke:#000000;stroke-width:1.5;" width="1014" x="10" y="289.9766"/><text fill="#000000" font-family="sans-serif" font-size="13" font-weight="bold" lengthAdjust="spacing" textLength="28" x="25" y="304.4717">loop</text><text fill="#000000" font-family="sans-serif" font-size="11" font-weight="bold" lengthAdjust="spacing" textLength="199" x="98" y="303.3955">[for each pending MatchHypothesis]</text><line style="stroke:#181818;stroke-width:1.0;" x1="260.5" x2="302.5" y1="330.6797" y2="330.6797"/><line style="stroke:#181818;stroke-width:1.0;" x1="302.5" x2="302.5" y1="330.6797" y2="343.6797"/><line style="stroke:#181818;stroke-width:1.0;" x1="261.5" x2="302.5" y1="343.6797" y2="343.6797"/><polygon fill="#181818" points="271.5,339.6797,261.5,343.6797,271.5,347.6797,267.5,343.6797" style="stroke:#181818;stroke-width:1.0;"/><text fill="#000000" font-family="sans-serif" font-size="13" lengthAdjust="spacing" textLength="188" x="267.5" y="325.8232">showXAIExplanation(hypothesis)</text><path d="M20,358.6797 L81,358.6797 L81,367.0313 L71,377.0313 L20,377.0313 L20,358.6797 " fill="#EEEEEE" style="stroke:#000000;stroke-width:1.5;"/><rect fill="none" height="370.4063" style="stroke:#000000;stroke-width:1.5;" width="994" x="20" y="358.6797"/><text fill="#000000" font-family="sans-serif" font-size="13" font-weight="bold" lengthAdjust="spacing" textLength="16" x="35" y="373.1748">alt</text><text fill="#000000" font-family="sans-serif" font-size="11" font-weight="bold" lengthAdjust="spacing" textLength="185" x="96" y="372.0986">[Finance Officer clicks "Approve"]</text><polygon fill="#181818" points="248.5,395.3828,258.5,399.3828,248.5,403.3828,252.5,399.3828" style="stroke:#181818;stroke-width:1.0;"/><line style="stroke:#181818;stroke-width:1.0;" x1="81.5" x2="254.5" y1="399.3828" y2="399.3828"/><text fill="#000000" font-family="sans-serif" font-size="13" lengthAdjust="spacing" textLength="155" x="88.5" y="394.5264">handleApprove(hypothesis)</text><polygon fill="#181818" points="495.5,425.7344,505.5,429.7344,495.5,433.7344,499.5,429.7344" style="stroke:#181818;stroke-width:1.0;"/><line style="stroke:#181818;stroke-width:1.0;" x1="260.5" x2="501.5" y1="429.7344" y2="429.7344"/><text fill="#000000" font-family="sans-serif" font-size="13" lengthAdjust="spacing" textLength="223" x="267.5" y="424.8779">approveHypothesis(hypothesisId, user)</text><polygon fill="#181818" points="685.5,456.0859,695.5,460.0859,685.5,464.0859,689.5,460.0859" style="stroke:#181818;stroke-width:1.0;"/><line style="stroke:#181818;stroke-width:1.0;" x1="507.5" x2="691.5" y1="460.0859" y2="460.0859"/><text fill="#000000" font-family="sans-serif" font-size="13" lengthAdjust="spacing" textLength="166" x="514.5" y="455.2295">seal(sealedBy: SystemUser)</text><polygon fill="#181818" points="518.5,486.4375,508.5,490.4375,518.5,494.4375,514.5,490.4375" style="stroke:#181818;stroke-width:1.0;"/><line style="stroke:#181818;stroke-width:1.0;stroke-dasharray:2.0,2.0;" x1="512.5" x2="696.5" y1="490.4375" y2="490.4375"/><text fill="#000000" font-family="sans-serif" font-size="13" lengthAdjust="spacing" textLength="159" x="524.5" y="485.5811">return ReconciliationRecord</text><polygon fill="#181818" points="953,516.7891,963,520.7891,953,524.7891,957,520.7891" style="stroke:#181818;stroke-width:1.0;"/><line style="stroke:#181818;stroke-width:1.0;" x1="507.5" x2="959" y1="520.7891" y2="520.7891"/><text fill="#000000" font-family="sans-serif" font-size="13" lengthAdjust="spacing" textLength="197" x="514.5" y="515.9326">saveRecord(ReconciliationRecord)</text><polygon fill="#181818" points="953,563.4922,963,567.4922,953,571.4922,957,567.4922" style="stroke:#181818;stroke-width:1.0;"/><line style="stroke:#181818;stroke-width:1.0;" x1="507.5" x2="959" y1="567.4922" y2="567.4922"/><text fill="#000000" font-family="sans-serif" font-size="13" lengthAdjust="spacing" textLength="106" x="514.5" y="546.2842">saveHypothesis(h)</text><text fill="#000000" font-family="sans-serif" font-size="13" lengthAdjust="spacing" textLength="133" x="514.5" y="562.6357">[status = APPROVED]</text><line style="stroke:#000000;stroke-width:1.0;stroke-dasharray:2.0,2.0;" x1="20" x2="1014" y1="576.4922" y2="576.4922"/><text fill="#000000" font-family="sans-serif" font-size="11" font-weight="bold" lengthAdjust="spacing" textLength="172" x="25" y="587.9111">[Finance Officer clicks "Reject"]</text><polygon fill="#181818" points="248.5,609.6797,258.5,613.6797,248.5,617.6797,252.5,613.6797" style="stroke:#181818;stroke-width:1.0;"/><line style="stroke:#181818;stroke-width:1.0;" x1="81.5" x2="254.5" y1="613.6797" y2="613.6797"/><text fill="#000000" font-family="sans-serif" font-size="13" lengthAdjust="spacing" textLength="146" x="88.5" y="608.8232">handleReject(hypothesis)</text><polygon fill="#181818" points="495.5,640.0313,505.5,644.0313,495.5,648.0313,499.5,644.0313" style="stroke:#181818;stroke-width:1.0;"/><line style="stroke:#181818;stroke-width:1.0;" x1="260.5" x2="501.5" y1="644.0313" y2="644.0313"/><text fill="#000000" font-family="sans-serif" font-size="13" lengthAdjust="spacing" textLength="211" x="267.5" y="639.1748">rejectHypothesis(hypothesisId, user)</text><polygon fill="#181818" points="685.5,670.3828,695.5,674.3828,685.5,678.3828,689.5,674.3828" style="stroke:#181818;stroke-width:1.0;"/><line style="stroke:#181818;stroke-width:1.0;" x1="507.5" x2="691.5" y1="674.3828" y2="674.3828"/><text fill="#000000" font-family="sans-serif" font-size="13" lengthAdjust="spacing" textLength="40" x="514.5" y="669.5264">reject()</text><polygon fill="#181818" points="953,717.0859,963,721.0859,953,725.0859,957,721.0859" style="stroke:#181818;stroke-width:1.0;"/><line style="stroke:#181818;stroke-width:1.0;" x1="507.5" x2="959" y1="721.0859" y2="721.0859"/><text fill="#000000" font-family="sans-serif" font-size="13" lengthAdjust="spacing" textLength="106" x="514.5" y="699.8779">saveHypothesis(h)</text><text fill="#000000" font-family="sans-serif" font-size="13" lengthAdjust="spacing" textLength="127" x="514.5" y="716.2295">[status = REJECTED]</text><!--SRC=[bP9HQzim58NVzIikVh9XUHw4hP352SbOI6Qlex3suKw-YRLgaf7aPFdtiwIciqsRKKC2vdpdwfuZE-4amUty_HGAEWewmMmzATl3WQoZ2ZReU4sMCUHE6qYMGg7Y1DlzNd0o2Q25vPOrQ9pWea7b82c8QyM55EY4LZdQ-gT6KysrSaPB-UGgylarMqdcs9qGqN98XgLMvqQxRZLX0xDPNPlctqmLXnL3C4U7PPSj7fMNZ2stCBdn-y4KfCPgHweIwl2rfPRIZ7d1wsKd7yWDr9FjzDBBkPVtGbtSiTpqfCsZRP3JkifOnqmkamovrYZu8gpxCCft4qO-htILP5Bh1lRTLH7o6ffuE8mu1jrpoH66sbgVxcRhnPz6eWgLfVKpdh5WGEbWTF_0fU2F5f9PqnXzf2I0_kcNMAEg93qXWxaNkjyfHkxVjZt7kde7hINJSuQsDokVWL2c_e-gJ-SfbEVk2_vzEw0xRjpuIn_AQ7guIuj7YchwaYLxpTFFaTsh7zQXQoryXDbkLso_B_A7s2v9Iw_MMz0lukvQkv7uRxacO6_lDlhIjwSi5fyNysy-PGYfAkP_Vm40]--></g></svg>